<?xml version="1.0" encoding="UTF-8" standalone="no"?>
<!DOCTYPE svg PUBLIC "-//W3C//DTD SVG 1.1//EN" "http://www.w3.org/Graphics/SVG/1.1/DTD/svg11.dtd">
<svg width="100%" height="100%" viewBox="0 0 455 450" version="1.1" xmlns="http://www.w3.org/2000/svg" xmlns:xlink="http://www.w3.org/1999/xlink" xml:space="preserve" xmlns:serif="http://www.serif.com/" style="fill-rule:evenodd;clip-rule:evenodd;stroke-linejoin:round;stroke-miterlimit:2;">
    <g transform="matrix(4.16667,0,0,4.16667,0,0)">
        <g>
            <path d="M4.897,31.536C1.761,38.378 0,45.981 0,54.001C0,67.898 5.253,80.566 13.879,90.137C23.762,101.103 38.074,108 54,108C66.952,108 78.822,103.42 88.123,95.815C90.628,93.767 92.957,91.513 95.058,89.055C95.718,88.282 96.36,87.494 96.976,86.685L9.248,23.772C7.59,26.222 6.141,28.822 4.897,31.536Z" style="fill:rgb(0,135,82);fill-rule:nonzero;"/>
            <path d="M54,0C35.376,0 18.956,9.429 9.248,23.772L96.976,86.685C103.889,77.611 108,66.288 108,54.001C108,24.177 83.823,0 54,0Z" style="fill:rgb(41,159,215);fill-rule:nonzero;"/>
            <path d="M81.835,92.318C80.53,92.318 79.694,91.478 79.016,90.543C78.677,90.075 78.378,89.584 78.079,89.162C77.781,88.739 77.483,88.386 77.147,88.194C76.849,88.024 76.571,87.939 76.295,87.889C76.017,87.84 75.742,87.827 75.448,87.802C74.86,87.752 74.201,87.651 73.316,87.112C72.43,86.572 72.088,86.163 71.766,85.727C71.604,85.507 71.448,85.282 71.231,85.03C71.014,84.778 70.736,84.499 70.332,84.173C69.929,83.849 69.427,83.504 68.892,83.151C68.356,82.8 67.786,82.439 67.247,82.085C66.171,81.377 65.216,80.685 64.903,80.113C64.59,79.541 64.538,79.088 64.517,78.634C64.506,78.408 64.504,78.181 64.481,77.939C64.458,77.698 64.415,77.439 64.323,77.153C64.179,76.703 63.523,76.156 62.847,75.678C62.171,75.201 61.476,74.794 61.253,74.627C60.804,74.29 60.997,73.79 61.491,73.79C61.988,73.79 65.931,74.193 67.953,74.193C69.975,74.193 72.989,73.85 75.198,72.98C75.115,73.241 74.842,73.538 74.588,73.77L74.512,73.84C74.395,73.945 74.473,74.088 74.625,74.048C75.807,73.739 76.731,73.248 77.465,72.693C78.139,72.184 78.656,71.62 79.034,71.081C79.46,70.474 79.724,69.899 79.882,69.479C79.973,69.235 80.043,68.964 80.085,68.781C80.284,68.976 80.439,69.272 80.541,69.516L80.581,69.616C80.634,69.75 80.771,69.743 80.811,69.604C80.862,69.431 80.921,69.197 80.974,68.905C81.097,68.229 81.189,67.246 81.057,66.025C80.902,64.592 80.172,62.64 79.458,60.991C78.744,59.342 78.046,57.994 77.957,57.771C77.778,57.323 77.729,57.162 78.091,56.916C78.182,56.855 78.298,56.78 78.42,56.676C78.542,56.571 78.671,56.439 78.79,56.262C79.027,55.91 79.223,55.384 79.237,54.565C79.247,53.892 79.032,52.996 78.804,52.215C78.576,51.433 78.334,50.768 78.292,50.554C78.183,50.011 78.377,49.827 78.632,49.65C78.923,49.449 79.552,49.19 80.132,48.795C80.713,48.399 81.247,47.865 81.347,47.114C81.438,46.437 81.199,45.879 80.857,45.371C80.516,44.862 80.072,44.405 79.756,43.93C79.396,43.391 79.036,42.887 78.768,42.456C78.498,42.025 78.321,41.665 78.321,41.417C78.321,41.16 78.394,40.936 78.505,40.715C78.616,40.495 78.764,40.277 78.912,40.034C79.208,39.545 79.505,38.951 79.505,38.01C79.505,37.313 79.149,36.66 78.703,36.008C78.48,35.682 78.234,35.357 77.998,35.026C77.763,34.696 77.537,34.361 77.353,34.015C78.101,33.922 78.506,33.677 78.946,33.206C79.724,32.372 80.559,29.609 79.944,26.335C79.915,26.18 79.746,26.174 79.707,26.327C79.643,26.571 79.569,26.794 79.502,26.98C79.429,27.175 79.363,27.329 79.322,27.419C79.368,25.389 79.355,18.618 75.24,13.712C75.141,13.595 75.001,13.659 75.026,13.81C75.068,14.068 75.094,14.325 75.108,14.544C75.121,14.729 75.127,14.967 75.127,15.152C74.939,14.972 74.643,14.7 74.333,14.447C73.809,14.02 73.033,13.438 72.03,12.821C70.023,11.588 67.101,10.214 63.446,9.651C58.797,8.937 54.854,9.083 52.074,9.408C50.22,9.626 48.884,9.922 48.2,10.095C48.047,10.134 48.05,10.3 48.205,10.333C48.583,10.414 48.931,10.513 49.21,10.603C49.404,10.665 49.655,10.761 49.863,10.843C41.531,12.186 35.321,16.222 31.192,19.924C29.128,21.775 27.584,23.543 26.556,24.848C25.903,25.677 25.458,26.319 25.222,26.677C25.14,26.8 25.227,26.91 25.366,26.859C25.965,26.637 26.478,26.508 26.842,26.433C27.202,26.36 27.415,26.341 27.415,26.341C26.1,27.746 25.226,29.543 24.594,31.316C24.244,32.298 23.972,33.265 23.737,34.162C23.547,34.884 23.38,35.565 23.224,36.149C22.65,38.304 22.275,39.235 21.812,39.784C21.715,39.899 21.795,40.022 21.939,39.98C22.507,39.814 22.952,39.606 23.272,39.426C23.472,39.313 23.691,39.149 23.858,39.017C23.254,42.064 23.479,45.204 23.859,47.584C24.117,49.205 24.447,50.474 24.631,51.117C24.673,51.265 24.83,51.262 24.867,51.112C24.964,50.718 25.093,50.37 25.197,50.119C25.3,49.87 25.38,49.718 25.38,49.718C25.534,52.438 27.442,56.246 27.442,56.246C25.556,56.823 23.057,58.423 22.037,59.107C21.905,59.195 21.967,59.353 22.124,59.33C22.647,59.246 23.232,59.211 23.631,59.194C21.614,60.358 20.461,61.443 19.342,63.245C17.437,66.314 16.136,69.704 15.198,72.243C14.563,73.963 12.235,81.046 13.879,90.137C23.762,101.103 38.074,108 54,108C66.952,108 78.822,103.42 88.123,95.815L88.123,95.738C85.612,94.195 82.661,92.318 81.835,92.318Z" style="fill:rgb(35,31,32);fill-rule:nonzero;"/>
            <path d="M23.972,70.549C23.194,71.244 22.551,72.001 22.103,72.583C21.883,72.87 21.709,73.114 21.59,73.289C21.507,73.41 21.374,73.373 21.367,73.227C21.355,72.988 21.364,72.766 21.378,72.587C21.388,72.468 21.415,72.297 21.441,72.145C20.729,72.735 20.044,73.6 19.545,74.312C19.295,74.668 19.089,74.987 18.946,75.217C18.865,75.347 18.718,75.304 18.72,75.151C18.742,73.594 19.125,72.124 19.52,71.014C19.777,70.289 20.04,69.718 20.208,69.377C20.273,69.247 20.408,69.263 20.437,69.406C20.498,69.699 20.613,69.983 20.728,70.217C20.825,70.416 20.963,70.639 21.062,70.789C21.518,69.743 22.054,68.861 22.306,68.468C22.374,68.362 22.483,68.375 22.524,68.496C22.58,68.661 22.646,68.813 22.705,68.935C22.747,69.022 22.808,69.137 22.861,69.228C23.423,68.274 24.081,67.372 24.36,67.001C24.432,66.906 24.534,66.921 24.573,67.035C24.698,67.394 24.95,68.171 25.127,69.053C25.771,68.528 26.314,67.845 26.571,67.497C26.649,67.392 26.762,67.417 26.789,67.545C27.063,68.878 26.911,70.441 26.911,70.441L27.034,70.441C27.687,69.93 28.198,69.186 28.467,68.745C28.545,68.616 28.688,68.653 28.693,68.804C28.712,69.375 28.687,70.152 28.67,70.549C29.002,70.303 29.297,70.008 29.509,69.775L29.673,69.588C29.759,69.486 29.872,69.52 29.888,69.652C30.093,71.364 29.909,72.914 29.667,74.055C29.542,74.647 29.4,75.127 29.289,75.463C29.239,75.615 29.066,75.595 29.052,75.436C28.974,74.581 28.78,73.838 28.663,73.449C28.401,73.999 28.066,74.532 27.795,74.927C27.688,75.084 27.591,75.217 27.514,75.323C27.43,75.437 27.305,75.402 27.293,75.262C27.244,74.648 27.106,73.856 27.034,73.471C26.741,73.781 26.445,74.032 26.223,74.207L26.054,74.335C25.954,74.411 25.857,74.362 25.858,74.236C25.865,73.52 25.789,72.639 25.748,72.221C25.42,72.53 24.985,72.869 24.632,73.131C24.446,73.268 24.283,73.384 24.17,73.463C24.08,73.526 23.992,73.487 23.979,73.379C23.824,72.143 23.972,70.55 23.972,70.55L23.972,70.549ZM34.644,88.762C34.739,88.864 34.806,88.873 34.926,88.854C35.243,88.805 35.571,88.639 35.663,88.589C35.761,88.536 35.849,88.584 35.844,88.696C35.829,89.043 35.712,89.456 35.589,89.733L35.487,89.96C35.457,90.033 35.43,90.102 35.411,90.171C35.372,90.306 35.364,90.437 35.413,90.57C35.475,90.737 35.564,90.866 35.665,90.983C35.765,91.099 35.876,91.204 35.978,91.322C36.184,91.558 36.359,91.844 36.359,92.382C36.359,93.026 35.91,93.448 35.427,93.715C34.943,93.982 34.395,94.112 34.126,94.163C34.031,94.182 33.967,94.121 33.982,94.024C34.048,93.599 34.173,92.408 33.847,90.885C33.611,89.782 33.383,89.036 33.206,88.542C32.964,87.868 33.344,87.364 33.807,87.365C34.511,87.368 34.37,88.47 34.644,88.762ZM24.055,92.836C24.055,92.832 23.857,91.176 24.181,89.974C24.216,89.846 24.349,89.846 24.385,89.974C24.509,90.428 24.771,91.276 25.209,92.233C25.793,93.511 26.693,94.983 28.003,95.968C28.114,96.052 28.047,96.189 27.913,96.154C26.901,95.886 24.701,95.166 23.31,93.698C23.312,93.814 23.38,93.995 23.493,94.228C23.666,94.585 23.945,95.06 24.368,95.539C24.455,95.638 24.385,95.748 24.258,95.71C24.042,95.643 23.737,95.535 23.373,95.37C22.631,95.03 21.647,94.447 20.683,93.471C18.805,91.57 17.002,88.177 17.198,82.196C17.202,82.058 17.348,82.032 17.4,82.16C17.4,82.16 17.765,83.097 18.343,83.645C18.396,83.298 18.514,82.632 18.701,81.941C18.954,81.007 19.366,79.814 20.016,78.698C20.081,78.586 20.195,78.597 20.237,78.721C20.355,79.074 20.59,79.73 20.879,80.303C20.879,80.303 21.27,79.08 21.708,78.271C21.763,78.168 21.862,78.167 21.921,78.266C21.968,78.349 22.031,78.454 22.104,78.571C22.279,78.853 22.515,79.209 22.761,79.507C22.965,79.141 23.49,78.215 23.942,77.521C24.011,77.414 24.12,77.429 24.16,77.549C24.3,77.968 24.611,78.863 24.947,79.612C25.027,79.434 25.137,79.196 25.23,79.01C25.371,78.728 25.547,78.396 25.728,78.118C25.791,78.019 25.891,78.026 25.94,78.132C26.33,78.957 27.813,82.406 27.101,85.782C27.068,85.939 26.897,85.939 26.863,85.782C26.813,85.552 26.744,85.259 26.654,84.933C26.444,84.159 26.12,83.191 25.661,82.374C25.646,82.892 25.729,85.251 25.03,86.653C24.963,86.787 24.817,86.761 24.799,86.612C24.746,86.175 24.644,85.386 24.497,84.48C24.278,83.135 23.96,81.528 23.556,80.431L23.419,80.454L23.399,80.334C23.399,80.334 23.393,83.765 22.699,86.605C22.663,86.757 22.503,86.758 22.463,86.608C22.233,85.749 21.746,83.719 21.587,81.443C21.481,81.659 21.309,82.253 21.15,83.115C20.946,84.223 20.764,85.773 20.852,87.542C20.859,87.694 20.712,87.743 20.628,87.615C20.199,86.965 19.323,85.597 18.806,84.528C18.802,88.686 20.579,91.396 22.21,92.595C22.128,92.311 21.999,91.878 21.929,91.491C21.83,90.944 21.758,90.249 21.826,89.526C21.839,89.39 21.986,89.372 22.03,89.502C22.127,89.782 22.272,90.171 22.461,90.589C22.832,91.411 23.373,92.355 24.055,92.836ZM54.871,87.783C55.236,87.503 55.633,87.233 56.023,86.958C56.631,86.529 57.222,86.088 57.644,85.58C57.743,85.459 57.89,85.533 57.857,85.685C57.628,86.703 57.138,87.291 56.626,87.734C56.326,87.992 56.018,88.201 55.748,88.418C55.477,88.635 55.243,88.859 55.095,89.144C54.883,89.55 54.804,90.153 54.778,90.653C54.769,90.847 54.766,91.026 54.768,91.172C54.769,91.321 54.633,91.365 54.546,91.245C54.341,90.957 54.043,90.498 53.863,90.026C53.687,89.564 53.604,89.038 53.914,88.664C54.175,88.352 54.506,88.063 54.871,87.783ZM45.569,92.101C45.464,92.897 45.219,93.773 44.529,93.773C43.841,93.773 43.172,92.664 43.583,91.726C43.709,91.438 43.964,91.02 44.254,90.701C44.546,90.381 44.874,90.161 45.149,90.265C45.424,90.37 45.555,90.63 45.605,90.964C45.654,91.297 45.622,91.704 45.569,92.101ZM42.992,88.911C42.92,88.99 42.846,89.062 42.77,89.128C42.696,89.193 42.622,89.255 42.546,89.317C42.472,89.377 42.399,89.437 42.328,89.5C42.257,89.564 42.188,89.63 42.122,89.706C42.032,89.808 41.928,89.959 41.812,90.128C41.697,90.297 41.57,90.484 41.432,90.659C41.158,91.009 40.841,91.306 40.497,91.306C39.981,91.306 39.586,90.197 39.551,89.319C39.516,88.444 39.551,86.433 39.691,84.527C39.831,82.621 40.462,80.53 41.397,80.53C42.788,80.53 43.981,85.899 43.723,87.239C43.553,88.121 43.285,88.589 42.992,88.911ZM34.583,75.166C34.525,74.848 34.406,74.581 34.294,74.332C33.644,72.888 32.851,71.216 33.511,70.175C33.976,69.441 35.102,69.435 35.841,70.323C36.539,71.164 37.219,72.39 37.578,72.894C37.938,73.398 38.26,73.73 38.65,73.811C38.996,73.88 39.238,73.83 39.434,73.715C39.532,73.656 39.618,73.584 39.699,73.499C39.801,73.395 39.926,73.455 39.908,73.6C39.801,74.453 39.44,75.223 39.023,75.96C38.784,76.381 38.526,76.792 38.284,77.202C38.043,77.611 37.818,78.021 37.645,78.439C37.036,79.915 37.038,81.526 37.144,82.457C37.159,82.594 37.05,82.653 36.945,82.566L36.825,82.466C36.699,82.362 36.572,82.253 36.45,82.122C36.208,81.861 35.991,81.512 35.869,80.939C35.699,80.145 35.906,79.432 36.17,78.731C36.301,78.38 36.446,78.033 36.566,77.679C36.674,77.359 36.76,77.034 36.795,76.698C36.632,76.982 36.306,77.531 35.938,78.027C35.523,78.59 35.055,79.086 34.758,79.068C34.614,79.061 34.549,78.952 34.534,78.743C34.526,78.643 34.531,78.52 34.543,78.38C34.554,78.238 34.572,78.078 34.592,77.902C34.671,77.196 34.776,76.23 34.583,75.166ZM35.412,55.345C35.506,55.243 35.598,55.044 35.739,54.804C35.92,54.497 36.182,54.125 36.532,53.787C36.63,53.693 36.742,53.742 36.739,53.879C36.732,54.148 36.738,54.585 36.804,55.102C36.915,55.968 37.198,57.056 37.883,57.942C37.911,57.893 37.942,57.847 37.96,57.82C38.011,57.744 38.087,57.641 38.187,57.53C38.325,57.376 38.508,57.206 38.732,57.076C38.86,57.002 38.966,57.097 38.905,57.231C38.725,57.632 38.416,58.397 38.206,59.335C38.182,59.445 38.09,59.474 38.006,59.399C37.929,59.332 37.829,59.239 37.719,59.126C37.49,58.894 37.218,58.577 37.019,58.227C36.959,58.348 36.937,58.53 36.883,58.71C36.809,58.957 36.649,59.282 36.306,59.293C35.781,59.309 35.348,58.745 35.065,58.258C34.84,57.87 34.679,57.477 34.61,57.298C34.572,57.562 34.555,58.247 34.445,58.921C34.378,59.334 34.274,59.754 34.111,60.074C33.95,60.389 33.711,60.644 33.364,60.644C32.233,60.644 31.652,58.264 31.611,56.431C31.571,54.598 31.732,52.319 32.193,50.908C32.619,49.607 34.018,49.862 33.931,51.436C33.897,52.069 33.776,53.026 33.959,54.464C34.127,54.168 34.554,53.16 35.13,52.442C35.222,52.329 35.353,52.377 35.347,52.523C35.328,53.091 35.306,54.267 35.412,55.345ZM43.086,52.001C43.385,52.117 43.744,52.189 44.349,52.219C44.652,52.234 44.921,52.197 45.157,52.145C45.394,52.093 45.599,52.025 45.774,51.976C46.129,51.877 46.358,51.86 46.489,52.199C46.768,52.924 45.123,53.871 44.149,53.751C43.754,53.702 43.457,53.541 43.233,53.37C43.121,53.284 43.027,53.196 42.949,53.118C42.871,53.04 42.808,52.973 42.758,52.927C42.557,52.745 42.436,52.705 42.196,52.887C41.588,53.348 40.318,52.908 39.314,51.476C38.189,49.873 38.55,47.766 39.314,47.786C39.506,47.791 39.633,47.943 39.753,48.189C39.874,48.436 39.986,48.778 40.148,49.16C40.473,49.923 40.996,50.851 42.176,51.517C42.36,51.62 42.512,51.713 42.657,51.793C42.8,51.873 42.935,51.943 43.086,52.001ZM48.828,39.525C49.152,39.424 49.537,39.336 50.016,39.321C50.164,39.316 50.212,39.451 50.094,39.541C49.658,39.869 49.289,40.175 49.013,40.351C48.81,40.481 48.576,40.464 48.289,40.245C48.182,40.163 48.079,40.077 47.998,40.006C47.91,39.93 47.93,39.832 48.042,39.797C48.119,39.774 48.199,39.746 48.282,39.716C48.446,39.657 48.625,39.588 48.828,39.525ZM49.101,44.879C48.607,45.008 48.001,44.968 47.602,44.918C47.449,44.9 47.428,44.743 47.571,44.684C48.907,44.138 50.038,43.18 50.51,42.747C50.614,42.651 50.73,42.709 50.714,42.85C50.563,44.221 49.985,45.138 49.426,45.722C49.163,45.996 48.904,46.197 48.696,46.336C48.565,46.424 48.443,46.308 48.524,46.172C48.726,45.833 48.871,45.51 48.965,45.27C49.057,45.034 49.1,44.881 49.101,44.879ZM43.36,38.389C43.433,38.373 43.97,38.265 44.491,38.224C44.75,38.204 45.014,38.198 45.219,38.232C45.321,38.249 45.419,38.276 45.495,38.326C45.575,38.377 45.638,38.457 45.642,38.567C45.651,38.808 45.469,39.015 45.165,39.202C44.862,39.39 44.438,39.557 43.966,39.717C43.493,39.878 42.972,40.032 42.472,40.192C42.011,40.34 41.57,40.494 41.203,40.664C42.999,40.614 43.807,41.006 43.752,41.492C43.698,41.956 43.133,42.171 42.405,42.36C42.041,42.454 41.636,42.541 41.234,42.649C40.832,42.756 40.432,42.885 40.079,43.061C39.115,43.543 38.09,44.612 37.306,45.561C36.928,46.018 36.606,46.448 36.373,46.77C36.278,46.903 36.109,46.818 36.158,46.662C36.363,46.007 36.641,45.396 36.892,44.91C37.082,44.543 37.338,44.128 37.524,43.84C36.941,44.112 36.451,44.469 36.103,44.759L35.967,44.874C35.846,44.978 35.709,44.872 35.778,44.728C36.348,43.547 37.344,42.452 38.433,41.492C39.06,40.939 39.716,40.431 40.339,39.976C40.924,39.549 41.48,39.168 41.951,38.842C39.826,39.575 38.039,40.377 37.138,40.799C36.99,40.868 36.884,40.716 37,40.601C38.745,38.886 40.654,37.655 42.405,36.677C43.364,36.142 44.276,35.683 45.088,35.262C45.862,34.86 46.546,34.494 47.095,34.128C46.755,34.146 45.658,34.349 44.455,34.713C44.307,34.759 44.224,34.622 44.333,34.511C45.204,33.627 46.161,32.884 47.426,32.504C48.852,32.076 49.579,31.973 50.563,31.721C51.258,31.542 52.31,31.105 53.247,30.806C53.714,30.657 54.154,30.542 54.504,30.511C54.856,30.481 55.119,30.534 55.235,30.721C55.615,31.335 54.665,32.541 53.237,33.218C51.847,33.878 48.429,35.35 47.099,35.657C47.752,35.767 48.405,35.759 49.022,35.713C49.672,35.665 50.283,35.574 50.813,35.496C51.343,35.418 51.794,35.353 52.122,35.353C52.453,35.354 52.659,35.421 52.703,35.607C52.881,36.355 50.818,37.314 48.459,37.427C47.71,37.462 46.783,37.391 45.869,37.466C44.956,37.542 44.056,37.765 43.36,38.389ZM67.707,58.697C67.711,58.688 67.755,58.527 67.885,58.373C68.02,58.215 68.245,58.069 68.592,58.1C68.963,58.135 69.191,58.482 69.32,58.766C69.408,58.96 69.464,59.153 69.493,59.269C69.523,59.165 69.537,59.003 69.578,58.818C69.649,58.512 69.801,58.126 70.137,57.858C70.8,57.327 71.769,57.397 73.139,57.925C74.287,58.365 75.147,59.006 76.097,60.573C76.561,61.339 76.903,62.045 77.069,62.573C77.152,62.839 77.19,63.058 77.178,63.219C77.165,63.383 77.099,63.483 76.98,63.51C76.839,63.542 76.709,63.483 76.608,63.408C76.505,63.332 76.411,63.225 76.334,63.12C76.233,62.985 76.153,62.842 76.102,62.748C76.105,62.91 76.151,63.188 76.163,63.458C76.171,63.64 76.165,63.832 76.12,63.985C76.077,64.135 75.981,64.29 75.788,64.304C75.711,64.31 75.631,64.27 75.539,64.202C75.447,64.133 75.344,64.037 75.219,63.929C74.972,63.714 74.64,63.454 74.155,63.29C73.565,63.088 72.665,62.654 72.149,61.703C72.129,61.902 72.155,62.308 72.115,62.712C72.065,63.201 71.901,63.827 71.351,63.862C70.8,63.897 70.315,63.208 69.99,62.618C69.721,62.129 69.523,61.63 69.444,61.423C69.394,61.509 69.374,61.624 69.327,61.744C69.242,61.962 69.063,62.208 68.702,62.295C67.974,62.472 66.008,61.125 66.008,59.934C66.008,59.338 66.329,58.825 66.701,58.562C67.076,58.298 67.5,58.291 67.707,58.697ZM63.181,57.221C63.084,57.311 62.978,57.411 62.873,57.527C62.591,57.837 62.58,58.103 62.623,58.28C62.653,58.4 62.571,58.469 62.456,58.42C61.833,58.149 61.712,57.428 62.1,56.864C62.55,56.212 63.45,56.124 63.602,56.534C63.661,56.693 63.585,56.825 63.44,56.977C63.367,57.052 63.278,57.132 63.181,57.221ZM66.786,51.53C66.791,51.431 66.798,51.336 66.807,51.284C66.833,51.136 66.885,50.934 66.986,50.714C67.189,50.273 67.592,49.76 68.392,49.469C68.878,49.293 69.49,49.144 70.006,49.144C70.524,49.144 70.942,49.293 71.041,49.712C71.169,50.251 70.91,50.604 70.544,50.851C70.361,50.974 70.151,51.07 69.951,51.149C69.75,51.228 69.557,51.29 69.408,51.346C68.811,51.566 68.128,51.765 67.443,51.633C67.532,52.255 67.242,53.175 66.362,53.046C65.606,52.935 65.35,51.72 65.876,51.39C66.134,51.228 66.363,51.257 66.526,51.331C66.683,51.403 66.774,51.514 66.781,51.523L66.786,51.53ZM67.156,45.652C67.052,45.715 66.944,45.783 66.81,45.849C66.675,45.915 66.513,45.98 66.299,46.036C65.87,46.149 65.236,46.23 64.203,46.23C63.685,46.23 63.261,46.185 62.885,46.12C62.507,46.055 62.178,45.971 61.849,45.894C61.191,45.738 60.536,45.607 59.515,45.706C58.495,45.805 57.529,46.071 56.766,46.209C56.002,46.348 55.442,46.362 55.235,45.959C54.938,45.381 55.471,44.398 56.246,43.801C56.599,43.53 56.856,43.379 57.132,43.241C57.407,43.103 57.7,42.978 58.125,42.762C58.974,42.329 59.976,41.868 61.124,41.868C61.994,41.868 62.862,42.318 63.739,42.797C64.178,43.037 64.618,43.285 65.064,43.487C65.509,43.69 65.96,43.848 66.415,43.909C67.328,44.03 68.057,43.943 68.694,43.834C69.014,43.781 69.31,43.721 69.595,43.68C69.879,43.64 70.152,43.618 70.425,43.638C70.974,43.679 71.323,43.893 71.533,44.096C71.362,43.385 71.586,42.657 72.159,42.27C72.898,41.771 73.949,42.027 74.555,42.834C74.443,42.512 74.299,42.255 74.143,42.018C73.97,41.755 73.785,41.518 73.587,41.259C73.192,40.741 72.75,40.139 72.277,39.087C71.426,37.199 70.814,35.011 70.696,34.58C70.036,34.466 69.489,34.313 69.003,34.151C68.516,33.989 68.093,33.819 67.68,33.671C66.856,33.375 66.078,33.167 64.944,33.297C63.837,33.424 62.973,33.855 62.121,34.322C61.695,34.556 61.274,34.799 60.826,35.017C60.454,35.199 60.064,35.363 59.641,35.491C59.515,35.529 59.44,35.444 59.494,35.325C59.787,34.67 60.004,33.916 60.149,33.243C60.189,33.053 60.233,32.828 60.289,32.591C60.346,32.353 60.418,32.103 60.513,31.864C60.705,31.385 60.997,30.95 61.475,30.742C61.954,30.534 62.738,30.629 63.531,30.799C64.325,30.97 65.128,31.216 65.648,31.31C66.167,31.405 66.822,31.453 67.524,31.599C68.226,31.746 68.976,31.993 69.684,32.485C71.102,33.469 71.989,34.561 72.575,35.754C72.701,35.248 72.668,34.765 72.602,34.408C72.571,34.241 72.533,34.101 72.502,33.999C72.471,33.9 72.529,33.83 72.631,33.841C73.949,33.988 74.622,34.323 75.303,34.995C76.155,35.839 76.514,37.328 75.664,37.642C75.308,37.773 75.028,37.449 74.87,37.2C74.695,36.927 74.586,36.621 74.571,36.576C74.254,36.941 73.906,37.111 73.638,37.189C73.503,37.228 73.389,37.244 73.308,37.25C73.284,37.252 73.234,37.251 73.177,37.249C74.108,38.667 75.004,40.342 76.313,42.194C77.623,44.045 78.158,44.742 78.266,44.878C78.375,45.015 78.424,45.142 78.353,45.284C78.313,45.365 78.21,45.548 78.069,45.708C77.929,45.868 77.751,46.003 77.56,45.99C77.414,45.98 76.996,45.885 76.541,45.822C76.086,45.759 75.594,45.727 75.303,45.842C75.081,45.929 74.907,46.067 74.759,46.218C74.611,46.368 74.49,46.53 74.373,46.665C74.024,47.07 73.556,47.371 72.921,47.553C71.789,47.878 70.717,47.601 70.527,46.937C70.34,46.287 71.066,45.504 72.159,45.167C72.159,45.167 72.052,45.139 71.875,45.118C71.693,45.097 71.437,45.084 71.137,45.111C70.538,45.168 69.765,45.393 69.062,46.067C68.148,46.945 67.156,46.814 67.156,45.652ZM57.022,54.688C56.984,54.592 56.692,53.884 56.185,53.192C55.679,52.499 54.958,51.821 54.065,51.787C52.784,51.737 51.685,52.665 50.938,53.552C50.834,53.676 50.676,53.586 50.73,53.433C50.957,52.79 51.267,52.185 51.547,51.705C51.82,51.239 52.064,50.892 52.172,50.743C50.611,51.641 49.429,52.822 48.73,53.619C48.622,53.741 48.465,53.644 48.524,53.492C48.981,52.339 49.556,51.435 50.117,50.717C50.449,50.294 50.775,49.936 51.069,49.63C51.364,49.326 51.626,49.073 51.829,48.861C52.35,48.317 52.343,47.432 51.782,46.924C51.668,46.821 51.738,46.684 51.888,46.714C53.356,47.006 53.907,48.545 53.711,49.454C55.84,50.341 57.653,52.22 58.802,53.907C58.843,53.968 58.825,54.046 58.76,54.083L57.611,54.723C57.751,54.775 57.992,54.789 58.292,54.843C58.739,54.922 59.315,55.084 59.831,55.422C60.866,56.096 61.091,56.737 60.798,57.094C60.652,57.274 60.405,57.291 60.121,57.223C59.839,57.153 59.521,56.999 59.234,56.834C59.046,56.727 58.855,56.646 58.665,56.575C58.476,56.504 58.289,56.442 58.108,56.372C57.748,56.23 57.418,56.055 57.156,55.699C57.089,55.743 57.014,55.779 56.931,55.805C56.558,55.919 56.182,55.763 56.089,55.46C55.997,55.157 56.22,54.818 56.593,54.703C56.742,54.658 56.891,54.655 57.022,54.688ZM36.955,29.445C37.465,29.323 37.951,29.301 38.31,29.309L38.378,29.311C38.537,29.316 38.568,29.484 38.421,29.546C36.822,30.216 35.349,31.189 34.707,31.637C34.583,31.724 34.466,31.629 34.525,31.489C35.166,29.97 36.094,29.072 36.884,28.548C37.2,28.339 37.493,28.19 37.738,28.085C37.889,28.02 37.99,28.182 37.866,28.29C37.486,28.618 37.258,28.907 37.126,29.113C36.993,29.319 36.955,29.444 36.955,29.444L36.955,29.445ZM47.81,23.877C47.108,24.082 45.697,24.52 44.283,25.114C44.132,25.177 44.032,25.019 44.153,24.91C44.473,24.625 44.931,24.23 45.512,23.767C46.705,22.816 48.418,21.581 50.511,20.423C49.88,20.52 46.506,21.26 42.366,23.106C42.221,23.17 42.12,23.035 42.223,22.915C42.442,22.659 42.759,22.3 43.15,21.89C43.914,21.09 44.962,20.095 46.125,19.284C45.672,19.399 43.868,20.001 42.163,20.745C42.015,20.809 41.914,20.661 42.028,20.546C42.966,19.609 45.191,17.457 47.138,16.14C46.639,16.326 44.445,17.278 41.789,18.91C38.793,20.75 35.21,23.455 32.821,26.929C33.039,26.833 33.541,26.516 34.246,26.133C35.029,25.708 36.062,25.202 37.197,24.788C37.348,24.733 37.44,24.883 37.322,24.992C36.995,25.295 36.509,25.753 35.944,26.317C34.903,27.357 33.593,28.753 32.521,30.181C32.854,30.04 33.33,29.851 33.782,29.688C33.935,29.632 34.027,29.794 33.901,29.897C33.615,30.131 33.234,30.45 32.808,30.821C32.017,31.51 31.074,32.38 30.32,33.218C30.216,33.334 30.074,33.258 30.111,33.107C30.177,32.838 30.277,32.465 30.423,32.015C30.724,31.083 31.214,29.823 31.978,28.488C31.753,28.611 31.212,29.035 30.495,29.692C29.586,30.524 28.397,31.729 27.269,33.22C27.172,33.348 27.015,33.273 27.053,33.117C27.083,32.994 27.121,32.851 27.167,32.691C27.345,32.067 27.646,31.175 28.139,30.11C29.119,27.995 30.856,25.193 33.888,22.42C33.234,22.596 32.553,22.88 32.059,23.097C31.908,23.163 31.806,23.003 31.929,22.894C39.208,16.434 50.565,11.916 61.183,12.996C60.921,12.817 60.02,12.367 58.681,11.917C58.525,11.863 58.567,11.663 58.733,11.679C62.965,12.104 71.361,13.895 74.728,20.735C74.798,20.876 74.674,20.98 74.547,20.888L74.387,20.771C74.055,20.533 73.602,20.236 73.087,19.979C73.209,20.226 73.639,20.858 74.086,21.812C74.616,22.939 75.169,24.515 75.317,26.376C75.328,26.511 75.221,26.566 75.117,26.479C74.473,25.939 72.471,24.439 69.655,23.971C69.496,23.944 69.49,23.769 69.646,23.731C70.176,23.605 71.053,23.439 72.191,23.377C72.104,23.298 71.933,23.232 71.685,23.15C71.281,23.017 70.676,22.84 69.87,22.664C68.252,22.31 65.825,21.962 62.577,21.975C62.415,21.975 62.382,21.796 62.534,21.738C62.67,21.688 62.832,21.631 63.02,21.573C63.715,21.355 64.757,21.107 66.17,20.972C65.987,20.855 65.508,20.676 64.838,20.477C64.161,20.276 63.289,20.056 62.325,19.904C62.162,19.879 62.165,19.684 62.329,19.663C63.204,19.549 64.645,19.4 66.211,19.394C66.012,19.29 65.492,19.121 64.731,18.935C63.731,18.69 62.32,18.417 60.666,18.298C60.502,18.286 60.487,18.095 60.646,18.057C61.539,17.844 63.141,17.524 64.971,17.445C64.971,17.445 64.567,17.243 63.916,17.003C63.265,16.763 62.363,16.485 61.363,16.331C61.211,16.308 61.193,16.154 61.336,16.097C61.833,15.901 62.707,15.596 63.503,15.529C63.375,15.455 63.111,15.384 62.732,15.308C62.169,15.195 61.355,15.07 60.345,15.021C58.345,14.924 55.581,15.125 52.499,16.309C52.694,16.351 53.124,16.368 53.678,16.432C54.332,16.506 55.154,16.646 55.949,16.906C56.09,16.952 56.089,17.095 55.947,17.139C55.185,17.374 53.338,18.018 51.434,19.221C51.803,19.242 53.087,19.171 54.349,19.276C54.503,19.288 54.531,19.441 54.392,19.508C53.793,19.793 52.602,20.401 51.267,21.295C51.493,21.288 52.025,21.188 52.759,21.099C53.503,21.009 54.456,20.93 55.486,20.936C55.65,20.937 55.675,21.134 55.515,21.176C54.537,21.432 52.865,21.914 51.201,22.607C51.455,22.665 52.135,22.715 52.904,22.849C53.056,22.875 53.07,23.032 52.924,23.084C51.89,23.45 49.156,24.498 46.145,26.313C46.01,26.395 45.894,26.276 45.979,26.143C46.057,26.02 46.153,25.876 46.266,25.715C46.622,25.205 47.144,24.532 47.81,23.877ZM24.539,63.247C24.536,63.248 24.219,63.384 23.734,63.666C23.247,63.95 22.592,64.379 21.921,64.965C21.813,65.058 21.686,64.948 21.763,64.829C22.728,63.308 25.516,59.467 28.74,60.253C29.913,60.539 30.811,63.015 30.317,65.646C30.291,65.78 30.145,65.785 30.111,65.653L30.076,65.514C29.982,65.157 29.839,64.688 29.644,64.231C29.531,64.689 29.293,65.401 28.799,66.308C28.734,66.426 28.597,66.389 28.601,66.253C28.622,65.634 28.611,64.461 28.329,63.259C27.831,63.519 27.092,63.988 26.609,64.677C26.534,64.784 26.411,64.741 26.418,64.61C26.445,64.108 26.554,63.191 27,62.612C26.822,62.666 26.436,62.883 25.973,63.248C25.425,63.68 24.769,64.32 24.26,65.187C24.195,65.299 24.072,65.269 24.064,65.139C24.059,65.045 24.058,64.93 24.065,64.801C24.087,64.393 24.196,63.837 24.539,63.247Z" style="fill:white;fill-rule:nonzero;"/>
        </g>
    </g>
</svg>
